<svg width="240" height="54" viewBox="0 0 240 54" fill="none" xmlns="http://www.w3.org/2000/svg">
<path d="M63.1562 9.22949C64.2762 9.22949 64.9742 9.94309 65.2715 11.3711C65.2968 11.5269 65.3125 11.7187 65.3125 11.9277V12.2246C65.3123 13.6939 64.556 15.7082 63.0615 18.2559C62.5989 19.0412 61.8178 20.0416 60.7031 21.2656C60.1405 21.8082 59.6098 22.292 59.1299 22.6826C58.0779 28.276 56.9328 32.7873 55.6875 36.2246C55.0422 37.9125 54.4683 39.2406 53.9736 40.2139C54.8429 40.4125 56.2964 40.787 58.3643 41.3604C59.6242 41.6563 60.7658 41.8086 61.8018 41.8086H61.8701C65.1572 41.8085 68.1056 40.2592 70.7402 37.1416C70.6355 37.6382 70.5727 38.1374 70.5508 38.6396C70.3662 38.8321 70.167 39.0427 69.9473 39.2656C67.5046 41.5736 64.8325 42.7295 61.9219 42.7295C60.2553 42.7295 57.9634 42.2816 55.0156 41.3604C54.1663 41.1524 53.6765 41.041 53.5205 41.041C52.1299 43.5369 50.6407 44.7704 49.0527 44.7705H48.8076C48.105 44.7705 47.6351 44.4583 47.4004 43.833C47.3644 43.6825 47.334 43.5263 47.334 43.3545C47.3341 42.2813 48.1567 41.3856 49.791 40.6523C50.8323 40.319 51.4685 40.1465 51.7285 40.1465C52.9324 37.7292 54.1564 34.1522 55.3896 29.4072C55.755 27.938 56.1296 26.2296 56.5469 24.2764H56.5205C55.0525 24.9643 53.6458 25.3184 52.3125 25.3184C50.4325 25.3184 49.0365 24.6557 48.1299 23.3184C47.7915 22.7347 47.5994 22.2404 47.542 21.8086C47.542 21.5633 47.6983 21.4225 48.0156 21.3545C48.2714 21.3548 48.4526 21.6207 48.5312 22.1523C48.8433 23.0056 49.4004 23.6205 50.1924 23.9951C50.807 24.2765 51.4687 24.4229 52.166 24.4229H52.4688C53.7807 24.4228 55.2084 23.9944 56.7656 23.1611C57.8696 17.4066 58.8183 13.7043 59.625 12.0684C60.6717 10.1724 61.8432 9.22949 63.1299 9.22949H63.1562ZM11.042 24.041C11.4219 24.0411 11.667 24.1939 11.791 24.5059C11.8016 24.5271 11.8018 24.5523 11.8018 24.5947C11.8018 24.6307 11.6765 25.0992 11.4111 26.0059C11.2032 26.7245 10.9787 27.8496 10.7334 29.3906L10.5781 30.6992H10.5938C11.0991 29.5219 11.8543 28.1936 13.0996 26.7656C14.4742 25.2871 15.7391 24.5518 16.875 24.5518C18.187 24.5518 19.0834 25.5326 19.5527 27.5166C19.7606 28.5216 19.7803 29.0993 19.7803 30.0059C19.7802 32.8138 18.7961 36.6616 16.6709 39.7295C16.4322 40.1362 15.963 40.7083 15.2764 41.4482C13.6097 43.1095 11.7601 43.9375 9.74414 43.9375C8.21901 43.9374 7.15601 43.333 6.52539 42.0518C6.3282 41.5839 6.22852 41.0943 6.22852 40.5625C6.22859 39.5106 6.61427 38.5681 7.38086 37.7402C7.93281 37.235 8.45813 36.9069 8.96875 36.7656C9.60463 36.563 9.90598 36.5518 10.4473 36.5518C11.4526 36.5518 12.3383 36.9379 13.0996 37.7139C13.2714 37.9283 13.3594 38.0579 13.3594 38.1045C13.3593 38.2708 13.3284 38.3652 13.1143 38.3906C13.0103 38.3906 12.8756 38.2707 12.709 38.0215C12.005 37.2975 11.255 37.0371 10.291 37.0371C9.16575 37.0372 8.20866 37.5007 7.44336 38.418C6.95821 39.1045 6.71882 39.8187 6.71875 40.5625C6.71875 41.6932 7.18722 42.5378 8.12988 43.0898C8.63515 43.3338 9.11402 43.4531 9.55664 43.4531C9.92192 43.4531 10.4952 43.3337 11.2549 43.0898C13.2909 42.3085 15.0103 40.5265 16.417 37.7559C17.6515 35.084 18.2715 32.5054 18.2715 30.0469C18.2715 28.5842 18.0255 27.3959 17.5361 26.4893C17.0469 25.8496 16.4579 25.5265 15.7969 25.5264C15.281 25.5264 14.6767 25.876 13.9795 26.5625C13.4008 27.1038 12.9797 27.558 12.709 27.9326C11.6877 29.2872 11.1814 30.2977 10.7334 31.6523C10.4841 32.5428 10.3643 33.1367 10.3643 33.418L10.25 34.6045C10.0567 34.8191 9.86982 34.8906 9.62988 34.8906C9.32331 34.8906 9.08357 34.7188 8.90625 34.375C9.05291 32.3231 9.22277 30.5736 9.42676 29.1416C9.7494 27.0684 10.0723 25.4697 10.3896 24.3604C10.5776 24.1204 10.7713 24.041 11.042 24.041ZM51.1816 41.1611C50.5044 41.3331 49.9841 41.5107 49.6348 41.6934C48.6869 42.2293 48.2236 42.7978 48.2236 43.3857C48.2557 43.7082 48.4169 43.876 48.6621 43.876H48.7285C49.4432 43.876 50.277 42.9691 51.209 41.1611H51.1816ZM37.6348 42.0625C37.9734 42.0625 38.1822 42.1666 38.2969 42.5371L38.3125 42.625C38.3125 42.953 38.2388 43.1673 37.8428 43.4326C37.6977 43.5004 37.5618 43.5371 37.4473 43.5371C37.1459 43.5371 36.9379 43.3744 36.8232 43.0518L36.8125 42.9072C36.8125 42.5739 37.0008 42.3135 37.3701 42.1201C37.4791 42.0842 37.5616 42.0626 37.6348 42.0625ZM169.001 9.74512C170.433 9.74522 171.704 10.2511 172.808 11.2656C173.573 12.0842 173.958 13.0471 173.958 14.1523C173.958 16.3803 172.38 18.7459 169.182 21.2139C164.818 24.4323 160.39 25.8232 156.016 25.8232L155.171 25.7979C153.832 28.9177 153.156 31.9803 153.156 35.0215C153.156 39.9015 155.417 42.4072 159.166 42.4072C161.146 42.4072 163.338 41.7709 165.755 40.4697C166.61 40.0217 167.651 39.224 168.87 38.1094C169.457 37.4998 169.922 36.9646 170.264 36.5215C169.881 37.2696 169.631 37.9992 169.508 38.709C169.255 38.959 168.974 39.2321 168.662 39.5264C166.485 41.3024 164.119 42.4749 161.572 43.0469C160.547 43.2348 159.667 43.3281 158.922 43.3281C156.662 43.3281 155.094 43.0317 153.261 41.7344C151.234 40.0945 150.349 37.7976 150.349 34.6152C150.349 32.0326 151.037 28.9425 152.417 25.3545C150.381 24.8078 149.094 24.2401 147.484 22.8135C146.053 21.2403 145.729 20.0417 145.729 18.4072C145.729 17.126 146.198 15.8657 147.146 14.6045C148.323 13.2405 149.635 12.5518 151.078 12.5518C152.302 12.5518 153.443 13.0578 154.521 14.0684C154.572 14.1882 154.6 14.2654 154.6 14.3027C154.537 14.6254 154.375 14.7871 154.156 14.7871C154.01 14.7869 153.755 14.6148 153.39 14.2764C152.458 13.6151 151.818 13.4746 150.974 13.4746C148.714 13.4748 146.625 15.9121 146.625 18.6719C146.625 20.6558 147.739 22.2654 149.974 23.5C150.614 23.8493 151.547 24.2041 152.791 24.5107C153.354 23.1614 154.286 21.4749 155.6 19.4482C156.261 18.4483 157.26 17.1774 158.609 15.6416C162.312 11.7083 165.614 9.74512 168.479 9.74512H169.001ZM204.516 9.42285C205.557 9.42313 206.125 10.4075 206.125 11.918C206.125 14.4326 204.723 18.3286 201.917 23.6201C200.761 25.7708 199.386 27.928 197.791 30.084C197.193 30.7969 196.89 31.177 196.89 31.2041C196.166 34.3799 195.813 36.9012 195.812 38.7705C195.812 41.213 196.504 41.5263 197.39 41.5264C197.995 41.5264 198.995 41.0573 200.39 40.1094C200.812 39.8227 201.479 39.2511 202.359 38.3711C202.995 37.6672 203.662 36.823 203.984 36.2656C204.003 36.2519 204.022 36.2397 204.04 36.2285C204.733 33.4379 205.468 30.318 206.219 26.876C207.837 19.964 209.386 15.1516 210.854 12.4316C211.176 11.8597 211.594 11.292 212.125 10.6934C212.714 10.1096 213.359 9.82333 214.062 9.82324C215.047 9.82324 215.723 10.4071 216.053 11.5791C216.151 11.9696 216.192 12.3855 216.192 12.8652V12.917C216.192 15.6303 214.906 19.3598 212.334 24.125C211.411 25.7703 210.343 27.4752 209.141 29.2139C209.133 29.235 208.638 29.928 207.646 31.292C207.271 32.8905 206.974 34.1879 206.75 35.1719V35.1992H206.766C206.984 34.8232 207.604 34.1518 208.646 33.1465C209.88 32.0839 210.995 31.5372 211.974 31.5371C212.984 31.5371 213.662 32.1096 214.01 33.2402C214.062 33.5628 214.1 33.8494 214.1 34.0986V34.2764C214.1 35.0058 213.854 36.4323 213.359 38.5625C213.229 39.2237 213.166 39.8131 213.166 40.3184C213.166 41.1517 213.427 41.7085 213.943 41.9805C214.193 42.099 214.401 42.1465 214.567 42.1465H214.75C215.662 42.1464 216.89 41.3702 218.474 39.8223C219.776 38.3957 220.578 37.3704 220.917 36.7344C220.949 36.6809 220.981 36.6316 221.01 36.5859C220.557 37.4857 220.294 38.3567 220.218 39.2012C219.116 40.4844 218.193 41.3884 217.438 41.9014C216.234 42.7866 214.947 43.2295 213.609 43.2295H213.516C212.281 43.2295 211.463 42.704 211.062 41.6934C210.906 41.2761 210.828 40.7975 210.828 40.2656C210.828 39.4483 211.062 38.0051 211.557 35.9277C211.682 35.2653 211.75 34.7082 211.75 34.2656V34.2236C211.75 33.4121 211.49 33.006 210.969 33.0059C210.062 33.0059 208.889 33.9171 207.438 35.7344C206.593 36.865 206.177 37.5003 206.177 37.6416C205.553 40.4695 205.188 42.0471 205.1 42.3711C204.777 42.7977 204.375 43.0058 203.881 43.0059H203.709C203.204 43.0059 202.906 42.7612 202.812 42.2559V42.2139C203.02 40.9335 203.262 39.6432 203.544 38.3486C203.363 38.5641 203.164 38.7957 202.947 39.041C201.854 40.0943 201.088 40.7351 200.671 40.9697C199.088 42.0576 197.698 42.6045 196.495 42.6045C194.594 42.6045 193.396 41.2238 193.396 38.1465C193.396 38.1025 193.396 38.0583 193.396 38.0137C193.878 37.4169 194.163 36.9692 194.244 36.667C194.244 36.4177 194.088 36.2765 193.791 36.2139H193.766C193.672 36.2139 193.581 36.2457 193.496 36.3174C193.87 32.5382 195.304 27.0182 197.808 19.7617C199.286 15.6044 200.662 12.7348 201.933 11.1201C202.881 9.98017 203.734 9.42285 204.516 9.42285ZM176.025 30.6777C177.088 30.6777 177.922 31.5 178.531 33.1465C178.687 33.6518 178.766 34.2241 178.766 34.9014C178.766 36.204 178.515 37.4481 178.01 38.6201C178.208 38.6201 178.302 38.6523 178.662 38.6523C179.614 38.6523 180.536 38.276 181.4 37.5107C181.759 37.1569 182.028 36.7781 182.233 36.3867C182.016 37.0345 181.878 37.6589 181.821 38.2617C181.794 38.2883 181.768 38.3168 181.739 38.3438C180.739 39.109 179.662 39.4999 178.516 39.5C178.286 39.5 177.974 39.4592 177.594 39.3965V39.4072C177.323 39.9898 176.807 40.6936 176.067 41.5107C174.895 42.6041 173.698 43.1465 172.438 43.1465C171 43.1464 170.062 42.4641 169.6 40.9951C169.453 40.5525 169.417 40.188 169.417 39.708C169.417 39.379 169.449 39.0464 169.508 38.709C170.591 37.6363 171.13 36.9728 171.13 36.7188C171.13 36.4481 171.036 36.303 170.714 36.251C170.589 36.251 170.504 36.2657 170.39 36.3604C170.351 36.4134 170.307 36.4656 170.264 36.5215C170.828 35.4186 171.675 34.2735 172.802 33.084C173.359 32.5375 173.906 32.0323 174.438 31.5791C174.895 30.9806 175.427 30.6779 176.025 30.6777ZM226.802 30.6777C227.864 30.6777 228.698 31.5 229.302 33.1465C229.458 33.6518 229.542 34.2241 229.542 34.9014C229.542 36.204 229.291 37.4481 228.786 38.6201C228.979 38.6202 229.073 38.6523 229.438 38.6523C230.386 38.6523 231.307 38.2761 232.177 37.5107C232.553 37.1361 232.838 36.7343 233.047 36.3184C233.14 36.2397 233.229 36.2041 233.308 36.2041C233.562 36.2042 233.709 36.2509 233.771 36.625C233.646 37.0982 233.229 37.6666 232.516 38.3438C231.51 39.1091 230.432 39.5 229.291 39.5C229.062 39.5 228.745 39.4591 228.37 39.3965V39.4072C228.099 39.9898 227.578 40.6936 226.838 41.5107C225.671 42.6041 224.474 43.1465 223.214 43.1465C221.771 43.1465 220.838 42.4642 220.37 40.9951C220.223 40.5525 220.192 40.188 220.192 39.708C220.192 39.5401 220.202 39.3713 220.218 39.2012C220.256 39.1569 220.296 39.1135 220.334 39.0684C221.411 37.6568 221.958 36.8499 221.958 36.6562V36.543C221.881 36.2924 221.75 36.1612 221.557 36.1611C221.463 36.1611 221.401 36.1775 221.349 36.2041C221.271 36.2208 221.16 36.3518 221.01 36.5859C221.574 35.4635 222.43 34.2963 223.578 33.084C224.135 32.5374 224.682 32.0323 225.214 31.5791C225.671 30.9805 226.203 30.6778 226.802 30.6777ZM87.7656 28.8281C88.271 28.8281 88.6978 29.0845 88.9951 29.7979C89.0618 29.9287 89.162 30.2922 89.1621 30.6465C89.1621 30.9692 89.1348 31.1777 89.1348 31.1777C90.5561 31.3711 91.9063 31.4746 93.1143 31.4746C93.4113 31.4748 93.5778 31.6567 93.6191 32.0059C93.6185 32.1542 93.2131 33.3979 92.4111 35.7451C91.9431 37.1878 91.709 38.4229 91.709 39.4482C91.709 40.8134 92.0565 41.4999 92.7656 41.5C93.7856 41.5 95.2711 40.2293 97.2031 37.6826C97.4001 37.4231 97.7218 36.9446 98.1484 36.2695C97.9163 37.1301 97.7415 37.8688 97.6299 38.4873C96.7399 39.6548 95.5493 41.0496 94.6191 41.6826C93.5939 42.3799 92.682 42.704 91.9434 42.7041C91.1621 42.7041 90.542 42.3548 90.0566 41.6562C89.7913 41.1883 89.6455 40.5518 89.6455 39.7705C89.6456 38.2039 90.166 35.8135 91.2285 32.5898V32.5625L90.125 32.6152C89.5945 32.5899 89.1354 32.5632 88.7861 32.5166C88.4115 33.6311 87.9736 34.6419 87.499 35.5898C87.0618 36.4856 86.7762 36.9433 86.6709 37.0166C86.6678 37.0188 86.6642 37.0203 86.6611 37.0225C86.769 36.8048 86.8294 36.6552 86.8379 36.5791V36.5518C86.8377 36.3333 86.708 36.2038 86.4521 36.1611C86.3203 36.1612 86.2082 36.2106 86.1113 36.3105C86.2167 36.0973 86.3787 35.7881 86.5938 35.3799C87.1763 34.2241 87.5422 33.4231 87.6982 32.9697C87.7502 32.798 87.8804 32.3975 87.8809 32.3086C87.3342 32.1259 86.9004 31.7763 86.5938 31.2656C86.4524 30.9536 86.3857 30.6933 86.3857 30.4746V30.3965C86.3857 29.8912 86.6189 29.4586 87.0615 29.084C87.1496 29.0169 87.3291 28.9206 87.334 28.918C87.4739 28.834 87.6137 28.8281 87.7656 28.8281ZM81.1514 29.9893C81.9059 30.0986 82.2803 30.4071 82.2803 30.9697C80.8537 35.0736 80.1406 38.0685 80.1406 39.9805C80.1407 40.8762 80.3231 41.4482 80.6816 41.6562C80.7496 41.6936 80.7966 41.708 80.8379 41.708H80.8643C81.4895 41.708 82.343 41.2043 83.4375 40.1885C84.3588 39.1525 85.1769 38.0056 85.9062 36.6562C85.9647 36.5055 86.033 36.3914 86.1113 36.3105C86.0174 36.5006 85.9688 36.6148 85.9688 36.6562V36.6826C85.9688 36.9172 86.1139 37.057 86.4111 37.125C86.5012 37.125 86.5723 37.0863 86.6611 37.0225C86.4432 37.4621 86.0244 38.176 85.4004 39.0986C84.9951 39.7079 84.3702 40.4377 83.5156 41.2656C82.3756 42.1883 81.359 42.6562 80.499 42.6562C79.3858 42.6562 78.6192 42.0054 78.2139 40.7188C78.0992 40.2134 78.0312 39.6826 78.0312 39.0986V39.0166C78.0312 38.3713 78.0887 37.7186 78.166 37.0732C75.9847 40.7972 74.1401 42.6562 72.6348 42.6562C71.5937 42.656 70.9164 41.8758 70.6191 40.292C70.5672 39.9802 70.542 39.6417 70.542 39.3086V39.041C70.542 38.907 70.5449 38.7732 70.5508 38.6396C71.5132 37.6364 72.001 37.0505 72.001 36.876V36.8086C72.001 36.5793 71.8592 36.4325 71.5674 36.3857H71.542C71.4527 36.3857 71.3593 36.4175 71.2607 36.5C71.0887 36.7207 70.9151 36.9347 70.7402 37.1416C71.0308 35.7639 71.6416 34.4061 72.5781 33.0576C73.7501 31.667 74.8899 30.9697 76.0205 30.9697H76.2285C77.2711 30.9697 78.1762 31.6254 78.9521 32.9531C79.3175 31.328 79.5783 30.5264 79.709 30.5264C80.0729 30.172 80.4745 29.9893 80.917 29.9893H81.1514ZM114.612 37.3086C114.273 37.7493 113.73 38.3671 112.979 39.1611C111.703 40.3545 110.703 41.11 109.952 41.4326C108.406 42.2564 107.11 42.6562 106.042 42.6562C105.094 42.6562 104.417 42.3083 104.031 41.5898C104.005 41.5525 104.005 41.5109 104.005 41.459C104.005 41.251 104.234 41.0684 104.458 41.0684C104.599 41.0684 104.734 41.1614 104.99 41.4746C105.152 41.5985 105.277 41.6563 105.422 41.667L105.641 41.6826C106.146 41.6826 106.495 41.4999 106.875 40.876C106.979 40.6467 107.025 40.3706 107.025 40.084C107.025 39.6039 106.771 38.5623 106.276 36.9639C106.171 36.5426 106.094 36.136 106.042 35.7188H106.016C105.856 36.0321 105.714 36.2982 105.592 36.5186C105.549 36.2111 105.409 36.0684 105.151 36.0684C105.031 36.0844 104.927 36.1366 104.838 36.2246C104.776 36.335 104.712 36.4449 104.647 36.5547C105.109 35.5425 106.406 32.7705 106.406 32.7705C106.745 32.1094 107.234 31.5987 107.89 31.2295C108.422 30.9428 108.912 30.7979 109.381 30.7979C110.125 30.798 110.63 31.1361 110.896 31.7812C110.953 31.9532 110.979 32.1259 110.979 32.3086V32.3799C110.876 33.4118 110.641 33.9276 110.25 33.9277C110.015 33.9277 109.886 33.7864 109.875 33.5264C110.056 33.0056 110.145 32.642 110.146 32.4326C110.146 32.058 110.083 31.8334 109.744 31.7188C109.291 31.7188 109.004 31.8659 108.291 33.5C108.042 34.0573 107.922 34.5628 107.922 35.0215C107.922 35.9947 108.015 36.6933 108.729 38.5264C108.797 38.7343 108.963 39.2653 108.963 39.8652C108.963 40.2918 108.886 40.7615 108.614 41.2041H108.63C109.053 41.0574 109.652 40.7452 110.406 40.2559C111.016 39.8905 111.824 39.1882 112.823 38.1885C113.338 37.6151 113.843 36.989 114.317 36.3184C114.328 36.3065 114.339 36.2969 114.349 36.2871C114.179 36.6564 114.067 36.9054 114.067 36.918C114.068 37.147 114.198 37.2815 114.469 37.3281L114.612 37.3086ZM118.969 30.7979C119.709 30.7979 120.214 31.1361 120.484 31.7812C120.536 31.9532 120.562 32.1259 120.562 32.3086V32.3799C120.458 33.4119 120.223 33.9277 119.832 33.9277C119.599 33.9275 119.474 33.7862 119.458 33.5264C119.64 33.0057 119.728 32.642 119.729 32.4326C119.729 32.058 119.667 31.8334 119.328 31.7188C118.875 31.7188 118.588 31.8659 117.875 33.5C117.624 34.0573 117.505 34.5628 117.505 35.0215C117.505 35.9947 117.599 36.6933 118.312 38.5264C118.38 38.7343 118.547 39.2653 118.547 39.8652C118.547 40.2918 118.469 40.7615 118.198 41.2041H118.214C118.641 41.0574 119.234 40.7452 119.99 40.2559C120.605 39.8905 121.406 39.1883 122.406 38.1885C122.816 37.7379 123.214 37.2538 123.594 36.7422C123.459 37.2685 123.37 37.7976 123.329 38.3301C123.103 38.5809 122.848 38.8587 122.562 39.1611C121.291 40.3545 120.285 41.11 119.536 41.4326C117.99 42.2564 116.692 42.6562 115.63 42.6562C114.677 42.6562 114.001 42.3082 113.614 41.5898C113.589 41.5525 113.589 41.5109 113.589 41.459C113.589 41.251 113.818 41.0684 114.042 41.0684C114.182 41.0684 114.318 41.1616 114.572 41.4746C114.734 41.5986 114.86 41.6563 115.005 41.667L115.224 41.6826C115.729 41.6825 116.078 41.4998 116.458 40.876C116.562 40.6467 116.614 40.3706 116.614 40.084C116.614 39.6039 116.354 38.5623 115.859 36.9639C115.755 36.5426 115.677 36.136 115.63 35.7188H115.604C115.056 36.7814 114.733 37.3086 114.613 37.3086C114.89 36.9492 115.031 36.708 115.031 36.5791C115.031 36.3859 114.886 36.2512 114.614 36.1885H114.572C114.507 36.1885 114.434 36.2019 114.349 36.2871C114.883 35.1267 115.99 32.7705 115.99 32.7705C116.329 32.1094 116.823 31.5987 117.474 31.2295C118.004 30.9428 118.495 30.7979 118.969 30.7979ZM133.911 29.9893C134.667 30.0986 135.042 30.4071 135.042 30.9697C133.614 35.0736 132.9 38.0685 132.9 39.9805C132.9 40.8763 133.078 41.4483 133.443 41.6562C133.51 41.6935 133.557 41.708 133.6 41.708H133.625C134.25 41.7078 135.105 41.2042 136.198 40.1885C137.12 39.1525 137.938 38.0055 138.667 36.6562C138.796 36.3189 138.974 36.1611 139.214 36.1611C139.468 36.2038 139.599 36.3333 139.6 36.5518V36.5791C139.573 36.8088 139.094 37.7192 138.162 39.0986C137.755 39.708 137.13 40.4376 136.276 41.2656C135.13 42.1881 134.119 42.6562 133.261 42.6562C132.146 42.6562 131.38 42.0054 130.974 40.7188C130.859 40.2135 130.791 39.6826 130.791 39.0986V39.0166C130.791 38.3713 130.843 37.7186 130.927 37.0732C128.744 40.797 126.901 42.656 125.396 42.6562C124.354 42.6562 123.677 41.876 123.381 40.292C123.329 39.9802 123.302 39.6417 123.302 39.3086V39.041C123.302 38.8034 123.311 38.5664 123.329 38.3301C124.183 37.3847 124.614 36.8059 124.614 36.5791C124.614 36.3859 124.474 36.2512 124.198 36.1885H124.156C124.083 36.1885 124 36.204 123.9 36.3184C123.8 36.4619 123.697 36.6029 123.594 36.7422C123.912 35.5012 124.492 34.2756 125.338 33.0576C126.51 31.667 127.651 30.9698 128.78 30.9697H128.99C130.031 30.9699 130.938 31.6255 131.714 32.9531C132.078 31.328 132.338 30.5264 132.469 30.5264C132.833 30.1719 133.234 29.9893 133.677 29.9893H133.911ZM20.9434 35.0322C21.2193 35.0323 21.4578 35.1724 21.6191 35.5684C21.6565 35.6418 21.7139 35.839 21.7139 36.0322C21.7139 36.2095 21.6982 36.3232 21.6982 36.3232C22.4794 36.4285 23.2197 36.4854 23.8809 36.4854C24.042 36.4855 24.1349 36.5845 24.1562 36.7764C24.1559 36.8613 23.9373 37.5437 23.4951 38.833C23.2392 39.6249 23.1094 40.3026 23.1094 40.8652C23.1094 41.6146 23.3022 41.9893 23.6875 41.9893C24.2502 41.989 25.0625 41.2922 26.125 39.8965C26.2167 39.7746 26.3532 39.5694 26.5342 39.2861C26.438 39.6337 26.3798 39.9838 26.3584 40.3369C25.8703 40.9767 25.219 41.7417 24.709 42.0898C24.1464 42.4752 23.6459 42.6523 23.2393 42.6523C22.8127 42.6523 22.4684 42.459 22.2031 42.0791C22.0565 41.8231 21.9795 41.469 21.9795 41.041C21.9796 40.1823 22.2607 38.8703 22.8486 37.0986V37.084L22.2393 37.1152C21.9474 37.0992 21.6982 37.0843 21.5049 37.0576C21.2969 37.6722 21.0564 38.2239 20.8018 38.7451C20.5564 39.2398 20.4001 39.4896 20.3428 39.5322C20.2909 39.5681 20.2497 39.5898 20.2031 39.5898C20.0365 39.5525 19.958 39.4744 19.958 39.3438V39.333C19.9587 39.2801 20.0785 39.0509 20.3018 38.6309C20.619 37.9951 20.8235 37.558 20.9062 37.3086C20.9383 37.2139 21.0049 36.989 21.0049 36.9424C20.7089 36.8437 20.4684 36.6523 20.3018 36.3711C20.2231 36.2044 20.1875 36.0575 20.1875 35.9375V35.8965C20.1875 35.6152 20.318 35.3799 20.5566 35.1719C20.61 35.1359 20.709 35.084 20.709 35.084C20.7862 35.0376 20.8648 35.0322 20.9434 35.0322ZM32.1709 35.6719C32.5882 35.7292 32.791 35.902 32.791 36.21C32.0098 38.4644 31.6143 40.1097 31.6143 41.1562C31.6143 41.6469 31.7143 41.9644 31.917 42.0791C31.9527 42.0989 31.9797 42.1045 32.001 42.1045H32.0156C32.3596 42.1043 32.8284 41.8276 33.4268 41.2705C33.9321 40.7038 34.3856 40.073 34.7803 39.333C34.8536 39.1467 34.9525 39.0626 35.083 39.0625C35.223 39.0838 35.2969 39.1524 35.2969 39.2764V39.292C35.2809 39.4173 35.0207 39.9174 34.5049 40.6719C34.2809 41.0052 33.9433 41.4067 33.4688 41.8652C32.8434 42.3706 32.2854 42.625 31.8174 42.625C31.203 42.6248 30.7806 42.2703 30.5566 41.5625C30.4953 41.2866 30.458 40.9944 30.458 40.6719V40.6309C30.458 40.2709 30.4899 39.9176 30.5312 39.5576C29.3339 41.6042 28.3231 42.625 27.4951 42.625C26.9218 42.625 26.5523 42.1988 26.3896 41.3281C26.359 41.1562 26.3486 40.975 26.3486 40.7871V40.6416C26.3486 40.5398 26.3523 40.4382 26.3584 40.3369C26.7612 39.809 27.0534 39.3665 27.0566 39.3086C27.0206 39.1473 26.9427 39.0684 26.8174 39.0684C26.7761 39.0685 26.7186 39.0847 26.6455 39.1152C26.6077 39.1756 26.569 39.2316 26.5342 39.2861C26.714 38.6362 27.0249 37.9953 27.4688 37.3604C28.11 36.5952 28.7336 36.2101 29.3535 36.21H29.4688C30.042 36.2101 30.5421 36.5739 30.9688 37.2979C31.1661 36.4072 31.3075 35.9639 31.3809 35.9639C31.578 35.7708 31.8018 35.672 32.0469 35.6719H32.1709ZM188.192 30.7979C189.443 30.7979 190.156 31.3708 190.364 32.5215V32.708C190.364 33.9426 189.635 35.0838 188.192 36.1611C187.52 36.6411 186.687 36.9534 185.724 37.1094C185.094 37.172 184.776 37.2243 184.776 37.2656C184.619 38.0948 184.547 38.7707 184.547 39.292V39.708C184.547 40.62 184.912 41.2404 185.625 41.5684C185.859 41.615 186.042 41.6416 186.166 41.6416C186.963 41.6415 188.114 41.2134 189.61 40.3281C191.349 39.1096 192.624 37.7975 193.427 36.3857C193.449 36.3599 193.473 36.3371 193.496 36.3174C193.436 36.9284 193.401 37.4937 193.396 38.0137C193.047 38.4464 192.594 38.9585 192.036 39.5469C189.75 41.5894 187.583 42.6152 185.542 42.6152H185.417C183.808 42.6152 182.703 41.9278 182.078 40.5371C181.881 40.0052 181.791 39.4585 181.791 38.8906C181.791 38.6837 181.801 38.4741 181.821 38.2617C182.484 37.6198 182.876 37.0795 183.001 36.625C182.938 36.2507 182.791 36.2041 182.531 36.2041C182.453 36.2041 182.365 36.2399 182.271 36.3184C182.26 36.3414 182.245 36.3637 182.233 36.3867C182.479 35.6539 182.827 34.8912 183.28 34.0986C184.739 31.8907 186.375 30.7979 188.192 30.7979ZM100.786 30.9951C101.318 30.9952 101.698 31.2039 101.906 31.625C101.944 31.6929 101.969 31.7973 101.969 31.9277C101.933 32.0837 101.578 33.2614 100.9 35.4746C100.228 37.7866 99.8896 39.3708 99.8896 40.2295C99.8896 40.8494 100.062 41.1777 100.386 41.1777C100.9 41.1777 101.796 40.3804 103.083 38.8232C103.675 38.0637 104.198 37.3149 104.647 36.5547C104.548 36.7731 104.484 36.9087 104.484 36.918C104.485 37.147 104.614 37.2815 104.886 37.3281L105.031 37.3086C105.116 37.3085 105.3 37.0455 105.592 36.5186C105.592 36.5212 105.593 36.5237 105.594 36.5264C105.594 36.641 105.228 37.2559 104.499 38.3438C102.504 41.1357 100.744 42.5215 99.2803 42.5215C98.4577 42.5214 97.9008 42.057 97.5889 41.1357C97.5156 40.7972 97.4736 40.5001 97.4736 40.2402V39.9014C97.4736 39.5354 97.5258 39.064 97.6299 38.4873C98.3641 37.5241 98.8941 36.716 98.9004 36.6152C98.8284 36.3192 98.6869 36.1777 98.4629 36.1777C98.3856 36.1778 98.2805 36.2044 98.1514 36.2656C98.1505 36.267 98.1493 36.2682 98.1484 36.2695C98.4728 35.067 98.9119 33.6272 99.4736 31.9531C99.5416 31.6933 99.6711 31.4586 99.8896 31.292C100.162 31.0947 100.463 30.9951 100.786 30.9951ZM174.042 34.7979C173.469 35.3031 173.093 35.6938 172.938 35.9951C171.974 37.371 171.49 38.7191 171.49 40.0576C171.49 41.4228 172.271 42.0059 173.312 42.0059C174.495 42.0059 175.676 41.0321 176.843 39.0684C175.817 38.5375 174.646 36.6933 174.104 35.0215C174.104 34.9895 174.089 34.9176 174.042 34.7979ZM224.812 34.7979C224.245 35.3031 223.865 35.6938 223.709 35.9951C222.75 37.3711 222.266 38.719 222.266 40.0576C222.266 41.4228 223.048 42.0059 224.089 42.0059C225.266 42.0057 226.448 41.0321 227.614 39.0684C226.594 38.5377 225.422 36.6935 224.875 35.0215C224.875 34.9895 224.864 34.9176 224.812 34.7979ZM29.625 36.7871C29.3383 36.7871 29.0423 37.0525 28.7236 37.5898C28.0423 38.6205 27.7032 39.7507 27.7031 41C27.7031 41.4942 27.7443 41.7864 27.8281 41.8906C27.8854 41.9372 27.9271 41.9638 27.9736 41.9639H28.0254C28.3067 41.9639 28.823 41.3494 29.583 40.1201C29.995 39.4855 30.3895 38.8225 30.7549 38.1465C30.7188 37.9944 30.5935 37.7288 30.375 37.3438C30.1046 36.9696 29.8541 36.7874 29.625 36.7871ZM76.5156 32.0166C75.9957 32.0166 75.4474 32.5002 74.8701 33.4854C73.6301 35.3547 73.0098 37.4232 73.0098 39.6992C73.0098 40.5893 73.0887 41.1248 73.2393 41.3184C73.3485 41.4063 73.4217 41.4482 73.499 41.4482H73.6045C74.1138 41.4482 75.0522 40.328 76.4375 38.0947C77.1922 36.9281 77.906 35.7347 78.5674 34.5C78.5047 34.224 78.2807 33.7347 77.8809 33.0322C77.3864 32.3551 76.9275 32.0168 76.5156 32.0166ZM129.276 32.0166C128.755 32.0167 128.208 32.5002 127.63 33.4854C126.39 35.3547 125.771 37.4232 125.771 39.6992C125.772 40.5896 125.844 41.125 126.001 41.3184C126.11 41.4063 126.182 41.4482 126.261 41.4482H126.364C126.875 41.4482 127.808 40.3281 129.198 38.0947C129.953 36.9282 130.667 35.7346 131.328 34.5C131.265 34.224 131.041 33.7347 130.635 33.0322C130.145 32.355 129.687 32.0166 129.276 32.0166ZM176.01 31.5264C175.594 31.5264 175.244 31.7813 174.974 32.3184C174.843 32.7075 174.78 33.0838 174.78 33.4424C174.78 34.693 175.328 36.0846 176.427 37.6152C176.765 38.0056 177.025 38.24 177.219 38.3281C177.703 37.2561 177.938 36.1093 177.938 34.876C177.937 33.5376 177.531 32.5003 176.724 31.7764C176.401 31.5524 176.25 31.5264 176.01 31.5264ZM226.786 31.5264C226.37 31.5264 226.021 31.7813 225.75 32.3184C225.614 32.7076 225.553 33.0838 225.553 33.4424C225.553 34.693 226.099 36.0837 227.203 37.6143C227.542 38.0049 227.796 38.2401 227.995 38.3281C228.474 37.2561 228.709 36.1093 228.709 34.876C228.709 33.5374 228.307 32.5003 227.499 31.7764C227.176 31.5525 227.021 31.5264 226.786 31.5264ZM188.297 31.625C187.453 31.625 186.531 32.6992 185.542 34.8232C185.286 35.4857 185.124 35.98 185.036 36.292H185.062C185.807 36.188 186.338 36.0838 186.688 35.9531C188.001 35.3958 188.881 34.5628 189.312 33.459C189.411 33.2043 189.469 32.9373 189.469 32.6826C189.469 32.3547 189.337 32.0839 189.062 31.8906C188.734 31.6599 188.31 31.626 188.297 31.625ZM20.958 35.3799C20.8287 35.3852 20.8232 35.5682 20.8232 35.6309V35.667C20.8233 35.8388 20.9578 35.9482 21.2188 36.0215H21.2285C21.2445 35.9802 21.2441 35.9482 21.2441 35.8857C21.2441 35.6726 21.1981 35.5269 21.1143 35.4375C21.0943 35.4175 21.0153 35.38 20.958 35.3799ZM87.791 29.459C87.5565 29.4751 87.542 29.798 87.542 29.918V29.9805C87.5422 30.2923 87.7916 30.4949 88.2715 30.6309H88.2803C88.3069 30.5522 88.3076 30.4892 88.3076 30.3799C88.3076 29.9894 88.2282 29.7243 88.0723 29.5684C88.0309 29.527 87.8897 29.459 87.791 29.459ZM204.766 10.5625C203.645 10.7087 200.364 19.4483 197.656 28.1465L197.427 29.084H197.438C202.323 22.2241 205.244 15.0578 205.244 11.8604C205.192 10.7564 205.047 10.5625 204.766 10.5625ZM214.646 11.1885C214.28 11.1888 213.749 11.7982 213.036 13.0059C211.61 15.6046 210.13 20.3964 208.567 27.3545C208.542 27.4745 208.401 28.0322 208.166 29.0322V29.0576H208.192C210.338 25.9123 211.88 23.3185 212.828 21.2559C214.489 17.7079 215.323 14.9173 215.323 12.876C215.323 12.0415 215.177 11.4999 214.906 11.2559C214.854 11.2132 214.802 11.1885 214.739 11.1885H214.646ZM102.474 26.251C102.89 26.251 103.162 26.4748 103.291 26.9014C103.318 26.9694 103.334 27.0577 103.334 27.1523C103.334 27.6936 103.009 28.1464 102.343 28.5264C102.114 28.6036 101.917 28.6464 101.771 28.6465C101.166 28.5785 100.849 28.2762 100.849 27.7295C100.849 27.2135 101.166 26.7709 101.771 26.4229C101.979 26.303 102.162 26.2511 102.328 26.251H102.474ZM169.286 10.7246C167.531 10.7246 165.25 12.1526 162.443 15.0166C159.042 18.6939 156.958 22.0993 155.6 24.918C155.823 24.9286 155.714 24.9424 155.938 24.9424C160.504 24.9424 164.886 23.3438 169.078 20.1611C170.547 18.9279 171.496 17.9536 171.906 17.251C172.911 15.7565 173.036 15.0163 173.036 13.9697C173.036 12.7191 172.323 11.7455 170.896 11.0322C170.062 10.7296 169.766 10.7246 169.286 10.7246ZM63.5566 10.3604C62.7393 10.3604 61.7138 12.3855 60.4951 16.4375C60.0885 17.9375 59.7231 19.5523 59.4004 21.2656C60.2856 20.4324 60.8538 19.839 61.1045 19.459C62.1138 18.147 62.8538 16.9695 63.3125 15.9375C64.0671 14.371 64.4433 13.1257 64.4434 12.1777V11.9805C64.4434 11.2298 64.2335 10.7242 63.8281 10.4229C63.7549 10.3803 63.6618 10.3604 63.5566 10.3604Z" fill="#8CAEA3"/>
</svg>
